<svg width="384" height="120" viewBox="0 0 384 120" fill="none" xmlns="http://www.w3.org/2000/svg">
<path d="M0 120V6.53061C19.1999 6.53061 19.1999 -4.11272e-06 38.3997 -4.11272e-06C57.5996 -4.11272e-06 57.5996 6.53061 76.7995 6.53061C95.9993 6.53061 95.9993 -4.11272e-06 115.197 -4.11272e-06C134.394 -4.11272e-06 134.396 6.53061 153.596 6.53061C172.796 6.53061 172.796 -4.11272e-06 191.996 -4.11272e-06C211.196 -4.11272e-06 211.196 6.53061 230.396 6.53061C249.596 6.53061 249.596 -4.11272e-06 268.795 -4.11272e-06C287.995 -4.11272e-06 287.995 6.53061 307.195 6.53061C326.395 6.53061 326.395 -4.11272e-06 345.598 -4.11272e-06C364.8 -4.11272e-06 364.797 6.53061 384 6.53061V120H0Z" fill="#007CBE"/>
</svg>
