<?xml version="1.0" encoding="UTF-8"?>
<svg id="_レイヤー_1" data-name="レイヤー_1" xmlns="http://www.w3.org/2000/svg" width="14" height="14" version="1.1" viewBox="0 0 14 14">
  <!-- Generator: Adobe Illustrator 30.1.0, SVG Export Plug-In . SVG Version: 2.1.1 Build 136)  -->
  <rect width="14" height="14" fill="none"/>
  <path d="M3.1.6l1,3.4v1.6h.8v-1.6l1-3.4h-.8l-.3,1.6c0,.5-.2.8-.2,1h0c0-.3-.1-.6-.2-1l-.3-1.6h-.8ZM6.8,1.9c-.3,0-.5,0-.7.2-.2.1-.3.3-.4.5,0,.2-.1.6-.1,1v.5c0,.4,0,.7.1,1s.2.4.4.5c.2.1.4.2.7.2s.5,0,.7-.2c.2-.1.3-.3.4-.5s.1-.6.1-1v-.5c0-.4,0-.7-.1-1,0-.2-.2-.4-.4-.5-.2-.1-.4-.2-.7-.2ZM8.3,1.9v2.8c0,.3,0,.6.2.8.1.2.3.2.5.2.4,0,.6-.2.8-.5h0v.5h.7V1.9h-.8v3c0,0,0,.1-.1.2,0,0-.1,0-.2,0s-.1,0-.2-.1,0-.2,0-.4V1.9h-.8ZM6.8,2.4c.1,0,.2,0,.2.2,0,.1,0,.3,0,.6v1.2c0,.3,0,.5,0,.6,0,.1-.1.2-.2.2-.1,0-.2,0-.2-.2,0-.1,0-.3,0-.6v-1.2c0-.3,0-.5,0-.6,0-.1.1-.2.2-.2ZM2.6,6.4c-.7,0-1.3.6-1.3,1.3v4.5c0,.7.6,1.3,1.3,1.3h9c.7,0,1.3-.6,1.3-1.3v-4.5c0-.7-.6-1.3-1.3-1.3H2.6ZM7.2,7.6h.7v1.7h0c0-.1.1-.2.3-.3.1,0,.2-.1.4-.1s.3,0,.4.1c0,0,.2.2.2.4,0,.2,0,.5,0,.8v.5h0c0,.5,0,.8-.2,1-.1.2-.3.3-.5.3s-.3,0-.4,0c-.1,0-.2-.1-.2-.3h0v.3h-.7v-4.5ZM2.9,7.8h2.1v.6h-.7v3.7h-.7v-3.7h-.7v-.6ZM10.4,8.9c.2,0,.4,0,.6.1.1,0,.2.2.3.4,0,.2,0,.4,0,.8v.5h-1.2v.2c0,.2,0,.4,0,.5,0,.1,0,.2,0,.2,0,0,0,0,.2,0s.2,0,.2-.1c0,0,0-.2,0-.4h.6c0,0,0,.1,0,.1,0,.3,0,.5-.2.6-.2.1-.4.2-.7.2s-.6-.1-.7-.3-.2-.6-.2-1v-.5c0-.5,0-.8.2-1s.4-.3.7-.3ZM4.8,9h.7v2.3c0,.1,0,.2,0,.3,0,0,0,0,.2,0s.1,0,.2,0c0,0,0,0,.1-.1v-2.5h.7v3.1h-.6v-.4h0c-.2.3-.4.4-.7.4s-.4,0-.5-.2-.1-.4-.1-.6v-2.3ZM10.4,9.4c0,0-.1,0-.2,0,0,0,0,.1,0,.2,0,.1,0,.3,0,.5v.2h.5v-.2c0-.2,0-.4,0-.5,0-.1,0-.2,0-.2s0,0-.2,0ZM8.2,9.4c0,0-.1,0-.2,0s0,.1-.1.2v1.8c0,0,0,0,.1.1,0,0,.1,0,.2,0s.1,0,.2,0c0,0,0-.1,0-.3,0-.1,0-.3,0-.5v-.4c0-.2,0-.4,0-.6,0-.1,0-.2,0-.3,0,0,0,0-.2,0Z" fill="#040000"/>
</svg>