<svg width="195" height="40" viewBox="0 0 195 40" fill="none" xmlns="http://www.w3.org/2000/svg">
<path d="M47.0969 26.4799C46.8063 26.4799 46.5662 26.7172 46.5662 27.0045V28.2285C46.5409 28.8406 46.3008 32.1131 42.1307 33.6619C41.7895 33.7868 41.4104 33.5245 41.4104 33.1623V1.63626C41.4104 1.34897 41.1703 1.11165 40.8797 1.11165H36.0398C35.7492 1.11165 35.509 1.34897 35.509 1.63626V33.4621C35.509 33.7868 35.2184 34.0366 34.8899 33.9867C31.9581 33.4746 29.6583 32.3254 27.3584 30.9265C27.0804 30.7516 27.0173 30.3769 27.232 30.1396C28.7611 28.391 29.7594 26.1926 30.0247 23.782C30.0627 23.4697 29.8099 23.1824 29.494 23.1824H24.6036C24.3509 23.1824 24.1234 23.3572 24.0855 23.607C23.8075 25.081 22.9735 26.355 21.8109 27.2168C21.6466 27.3417 21.4191 27.3417 21.2422 27.2418C20.2692 26.7047 19.2962 26.2051 18.4369 25.8054C16.3392 24.8312 14.1657 24.4189 12.0933 24.4439C11.8406 24.4439 11.6258 24.2816 11.5626 24.0443C11.4362 23.5696 11.3604 23.0699 11.3604 22.5454V12.2157C11.3604 8.70588 14.2415 5.84556 17.7924 5.84556H18.2852C21.1664 5.84556 23.58 7.90649 24.0855 10.6169C24.1361 10.8667 24.3509 11.0416 24.6036 11.0416H29.494C29.8226 11.0416 30.0627 10.7668 30.0247 10.4421C29.3803 4.59651 24.3383 0 18.26 0H17.7672C10.9812 0 5.43377 5.49582 5.43377 12.2032V22.5329C5.43377 23.5571 5.57278 24.5439 5.82551 25.4806C5.88869 25.7179 5.77496 25.9678 5.56014 26.0927C4.46075 26.6922 3.51299 27.4166 2.7927 28.241C0.909841 30.3769 0 32.9875 0 36.235V37.1218C0 37.409 0.240097 37.6464 0.530741 37.6464L4.86512 36.5473C5.15576 36.5473 5.39586 36.3099 5.39586 36.0227V35.6479C5.39586 35.498 5.39586 35.3231 5.39586 35.1483C5.57278 32.4878 7.53146 31.0889 8.64349 30.5518C9.07313 30.3394 9.56598 30.1646 10.122 30.0397C14.2542 29.0654 18.121 31.5135 21.5961 33.7619C21.7857 33.8867 21.9879 34.0117 22.1774 34.1365C23.0493 34.6986 24.0097 35.3356 25.0711 35.9602C25.147 35.9977 25.2228 36.0476 25.286 36.085C25.3744 36.135 25.4629 36.185 25.5513 36.235C25.564 36.235 25.5766 36.2475 25.5893 36.26C28.9127 38.146 32.8427 39.7573 38.2891 39.7573C46.4019 39.7573 52.0631 34.5862 52.0631 27.1668V25.9428C52.0631 25.6555 51.8231 25.4182 51.5323 25.4182L47.0843 26.5174L47.0969 26.4799Z" fill="#008CD6"/>
<path d="M70.6583 14.655C68.7688 14.655 64.375 13.9898 64.375 7.81223C64.375 3.44876 66.8471 0.628906 70.6776 0.628906C73.6968 0.628906 75.7344 2.3953 75.7795 5.03056H72.9018C72.7023 3.42012 71.9136 2.60535 70.5617 2.60535C68.5016 2.60535 67.3235 4.51178 67.3235 7.83132C67.3235 10.944 68.3922 12.6563 70.33 12.6563C71.4726 12.6563 72.8278 11.9688 72.9276 10.0401H75.889C75.8278 10.8836 75.7087 12.0675 74.6658 13.1336C73.6775 14.1426 72.3288 14.6518 70.655 14.6518L70.6583 14.655Z" fill="#008CD6"/>
<path d="M77.891 14.4443V7.18413C77.891 6.7372 77.8203 5.45108 77.7656 4.84339H80.2562L80.3109 6.62467L80.4844 6.66003C80.7704 6.01698 81.3006 4.81445 83.4088 4.81445C83.4795 4.81445 83.5534 4.81445 83.6274 4.81766V7.19699C83.4313 7.18092 83.2449 7.17448 83.0713 7.17448C80.5615 7.17448 80.5615 8.8368 80.5615 9.72748V14.4411H77.891V14.4443Z" fill="#008CD6"/>
<path d="M89.1147 14.8634C88.2765 14.8634 86.7169 14.709 85.7098 13.6764C84.8846 12.824 84.4688 11.5663 84.4688 9.93869C84.4688 7.84464 85.1445 6.31673 86.4766 5.39998C87.2628 4.8821 88.2018 4.60547 89.1927 4.60547C90.1836 4.60547 92.0972 4.90462 93.0848 6.90859C93.7379 8.21777 93.6989 9.61703 93.6632 10.3471H87.0516V10.4373C87.0516 12.2257 87.7566 13.1328 89.1505 13.1328C90.0861 13.1328 90.6872 12.6793 90.9374 11.7818H93.3967C93.3578 12.2096 93.2408 12.9752 92.4936 13.7504C91.8178 14.4548 90.5832 14.8602 89.1115 14.8602L89.1147 14.8634ZM89.0952 6.37141C87.9516 6.37141 87.2238 7.21739 87.1524 8.63915L87.1458 8.73564H90.9016V8.64558C90.9016 7.18201 90.2583 6.37463 89.0952 6.37463V6.37141Z" fill="#008CD6"/>
<path d="M98.5066 14.654C97.1189 14.654 96.5235 14.2565 96.1637 13.9103C95.6478 13.3911 95.3516 12.6379 95.3516 11.8398C95.3516 11.0898 95.61 9.70829 97.3413 8.90375C98.5066 8.37488 100.21 8.37488 101.124 8.37488H101.213V8.28513C101.213 7.65049 101.194 7.32675 101.077 6.96776C100.787 6.1408 99.9047 6.09913 99.7296 6.09913C99.2582 6.09913 98.8313 6.31389 98.587 6.67608C98.3892 6.98379 98.3636 7.27547 98.3608 7.50305H95.7756C95.7974 6.9902 95.8864 6.05426 96.8226 5.37794C97.5325 4.8651 98.4971 4.60547 99.6917 4.60547C100.561 4.60547 102.152 4.76253 103.06 5.82348C103.489 6.34273 103.706 7.12803 103.706 8.1473L103.725 12.0513C103.725 12.9424 103.791 13.7213 103.935 14.4232H101.563C101.481 13.8719 101.481 13.4617 101.481 13.186V12.8944L101.315 13.1347C100.274 14.654 99.0319 14.654 98.5037 14.654H98.5066ZM100.564 9.82368C98.9335 9.82368 97.9216 10.4712 97.9216 11.516C97.9216 12.2501 98.4242 12.9904 99.386 12.9904C99.8697 12.9904 100.332 12.7758 100.656 12.4007C101.171 11.7597 101.213 10.9744 101.213 9.93585V9.85255L101.131 9.84611C100.937 9.83011 100.745 9.82046 100.564 9.82046V9.82368Z" fill="#008CD6"/>
<path d="M109.688 14.6545C106.875 14.6545 106.875 12.9476 106.875 12.1263V6.70414H104.984V5.00051H106.875V3.06587L109.555 2.09375V5.00051H111.893V6.70414H109.555V11.183C109.574 12.0845 109.587 12.7166 110.951 12.7166C111.338 12.7166 111.542 12.7006 111.835 12.6685V14.3657C110.834 14.6256 110.002 14.6545 109.684 14.6545H109.688Z" fill="#008CD6"/>
<path d="M113.838 14.4448V4.85036H116.44V14.4448H113.838ZM114.946 3.66192L113.359 2.02903L115.331 0L116.919 1.63289L114.946 3.66192Z" fill="#008CD6"/>
<path d="M121.622 14.4443L118.172 4.81445H120.982L123.213 11.6781L125.485 4.81445H128.011L124.617 14.4443H121.622Z" fill="#008CD6"/>
<path d="M133.068 14.8634C132.229 14.8634 130.67 14.709 129.663 13.6764C128.837 12.824 128.422 11.5663 128.422 9.93869C128.422 7.84464 129.098 6.31673 130.43 5.39998C131.216 4.8821 132.154 4.60547 133.145 4.60547C134.137 4.60547 136.051 4.90462 137.038 6.90859C137.691 8.21777 137.652 9.61703 137.616 10.3471H131.004V10.4373C131.004 12.2257 131.709 13.1328 133.104 13.1328C134.039 13.1328 134.64 12.6793 134.89 11.7818H137.35C137.31 12.2096 137.194 12.9752 136.446 13.7504C135.771 14.4548 134.536 14.8602 133.064 14.8602L133.068 14.8634ZM133.048 6.37141C131.904 6.37141 131.176 7.21739 131.105 8.63915L131.099 8.73564H134.855V8.64558C134.855 7.18201 134.211 6.37463 133.048 6.37463V6.37141Z" fill="#008CD6"/>
<path d="M146.228 0.628906H143.297V14.4456H146.228V0.628906Z" fill="#008CD6"/>
<path d="M151.862 14.654C150.409 14.654 149.334 14.2726 148.579 13.4905C147.984 12.8655 147.911 12.1443 147.891 11.7405H150.402C150.451 12.1411 150.712 13.0674 152.113 13.0674C153.214 13.0674 153.714 12.4231 153.714 11.8238C153.714 11.2244 153.314 10.9198 152.29 10.641L150.509 10.1602C149.721 9.92941 148.098 9.45826 148.098 7.55433C148.098 5.76258 149.74 4.60547 152.288 4.60547C153.96 4.60547 155.777 5.31384 155.909 7.28829H153.476C153.388 6.52222 152.892 6.13439 151.997 6.13439C151.102 6.13439 150.551 6.55748 150.551 7.18573C150.551 7.91332 151.109 8.06396 151.955 8.29154L153.718 8.77233C155.432 9.23389 156.264 10.0929 156.264 11.3975C156.264 12.9649 154.886 14.654 151.862 14.654Z" fill="#008CD6"/>
<path d="M161.089 0.628906H158.367V14.4456H161.089V0.628906Z" fill="#008CD6"/>
<path d="M166.327 14.654C164.938 14.654 164.343 14.2565 163.983 13.9103C163.468 13.3911 163.172 12.6379 163.172 11.8398C163.172 11.0898 163.429 9.70829 165.162 8.90375C166.327 8.37488 168.03 8.37488 168.943 8.37488H169.033V8.28513C169.033 7.65049 169.013 7.32675 168.896 6.96776C168.606 6.1408 167.724 6.09913 167.549 6.09913C167.079 6.09913 166.652 6.31389 166.406 6.67608C166.209 6.98379 166.183 7.27547 166.18 7.50305H163.595C163.618 6.9902 163.707 6.05426 164.643 5.37794C165.353 4.8651 166.317 4.60547 167.511 4.60547C168.38 4.60547 169.972 4.76253 170.879 5.82348C171.309 6.34273 171.526 7.12803 171.526 8.1473L171.545 12.0513C171.545 12.9424 171.612 13.7213 171.755 14.4232H169.383C169.3 13.8719 169.3 13.4617 169.3 13.186V12.8944L169.135 13.1347C168.093 14.654 166.852 14.654 166.323 14.654H166.327ZM168.383 9.82368C166.753 9.82368 165.741 10.4712 165.741 11.516C165.741 12.2501 166.244 12.9904 167.205 12.9904C167.689 12.9904 168.151 12.7758 168.476 12.4007C168.992 11.7597 169.033 10.9744 169.033 9.93585V9.85255L168.95 9.84611C168.756 9.83011 168.565 9.82046 168.383 9.82046V9.82368Z" fill="#008CD6"/>
<path d="M180.353 14.4415V8.46972C180.353 8.05466 180.353 7.6943 180.19 7.36611C180.059 7.10227 179.651 6.48451 178.725 6.48451C178.08 6.48451 177.497 6.78052 177.167 7.27924C177.032 7.47551 176.805 7.93561 176.805 8.81721V14.4415H174.121V6.5199C174.121 6.41372 174.121 5.49351 174.07 4.83392H176.616L176.702 6.51025L176.856 6.25929C177.102 5.85066 177.86 4.60547 179.934 4.60547C182.008 4.60547 182.655 5.96326 182.809 6.38155C183.011 6.95105 183.072 7.4208 183.072 9.26445V14.4447H180.35L180.353 14.4415Z" fill="#008CD6"/>
<path d="M189.362 14.6518C186.866 14.6518 185.375 12.8661 185.375 9.8707C185.375 6.72974 186.999 4.70152 189.514 4.70152C191.216 4.70152 191.906 5.68166 192.133 6.00191L192.295 6.23158V0.628906H194.939V12.9599C194.939 13.5034 194.97 14.0824 195.005 14.4609H192.345L192.256 12.8144L192.104 13.0926C191.908 13.4549 191.722 13.801 191.166 14.1666C190.506 14.6065 189.817 14.655 189.356 14.655L189.362 14.6518ZM190.215 6.40302C188.254 6.40302 188.042 8.77413 188.042 9.79308C188.042 11.7825 188.797 12.9697 190.064 12.9697C190.841 12.9697 191.571 12.5168 191.925 11.8148C192.234 11.2132 192.389 10.4207 192.389 9.46314C192.389 7.54491 191.577 6.40302 190.215 6.40302Z" fill="#008CD6"/>
<path d="M73.1846 37.4726L67.8064 26.0839L67.6328 26.122V37.4726H65V23.8652H69.1726L74.3741 34.666L74.5477 34.6278V23.8652H77.142V37.4726H73.1846Z" fill="#008CD6"/>
<path d="M83.5132 37.6814C82.0912 37.6814 81.4814 37.2839 81.1128 36.9377C80.5845 36.4184 80.2812 35.6652 80.2812 34.8671C80.2812 34.117 80.5454 32.7356 82.3196 31.931C83.5132 31.4022 85.258 31.4022 86.194 31.4022H86.2853V31.3124C86.2853 30.6778 86.2658 30.3541 86.1451 29.9951C85.8483 29.1681 84.9449 29.1265 84.7655 29.1265C84.2828 29.1265 83.8459 29.3412 83.5947 29.7034C83.3925 30.0112 83.3664 30.3028 83.3632 30.5304H80.715C80.7378 30.0175 80.8291 29.0816 81.788 28.4052C82.5152 27.8925 83.5034 27.6328 84.7264 27.6328C85.6168 27.6328 87.2474 27.7899 88.1769 28.8508C88.6171 29.37 88.8389 30.1553 88.8389 31.1746L88.8585 35.0787C88.8585 35.9697 88.9269 36.7486 89.0738 37.4506H86.644C86.5592 36.8993 86.5592 36.4889 86.5592 36.2133V35.9216L86.3897 36.1621C85.3232 37.6814 84.0513 37.6814 83.5099 37.6814H83.5132ZM85.62 32.851C83.9502 32.851 82.9131 33.4984 82.9131 34.5434C82.9131 35.2774 83.4284 36.0178 84.4134 36.0178C84.909 36.0178 85.3819 35.803 85.7146 35.428C86.2429 34.7869 86.2853 34.0016 86.2853 32.9631V32.8798L86.2005 32.8734C86.0016 32.8574 85.8059 32.8477 85.62 32.8477V32.851Z" fill="#008CD6"/>
<path d="M97.8316 37.4726L94.7287 32.0882L97.7663 27.9656H100.766L97.4918 32.0659L101.002 37.4726H97.8316ZM92 37.4726V23.8652H94.6634V37.4726H92Z" fill="#008CD6"/>
<path d="M106.046 37.6814C104.658 37.6814 104.063 37.2839 103.703 36.9377C103.187 36.4184 102.891 35.6652 102.891 34.8671C102.891 34.117 103.149 32.7356 104.88 31.931C106.046 31.4022 107.75 31.4022 108.663 31.4022H108.752V31.3124C108.752 30.6778 108.733 30.3541 108.616 29.9951C108.325 29.1681 107.444 29.1265 107.269 29.1265C106.797 29.1265 106.37 29.3412 106.125 29.7034C105.928 30.0112 105.903 30.3028 105.9 30.5304H103.315C103.336 30.0175 103.425 29.0816 104.362 28.4052C105.072 27.8925 106.036 27.6328 107.231 27.6328C108.1 27.6328 109.691 27.7899 110.599 28.8508C111.029 29.37 111.245 30.1553 111.245 31.1746L111.264 35.0787C111.264 35.9697 111.331 36.7486 111.474 37.4506H109.102C109.02 36.8993 109.02 36.4889 109.02 36.2133V35.9216L108.854 36.1621C107.813 37.6814 106.571 37.6814 106.043 37.6814H106.046ZM108.103 32.851C106.473 32.851 105.461 33.4984 105.461 34.5434C105.461 35.2774 105.963 36.0178 106.925 36.0178C107.409 36.0178 107.871 35.803 108.195 35.428C108.71 34.7869 108.752 34.0016 108.752 32.9631V32.8798L108.67 32.8734C108.476 32.8574 108.284 32.8477 108.103 32.8477V32.851Z" fill="#008CD6"/>
<path d="M120.893 37.4688V31.497C120.893 31.0819 120.893 30.7217 120.729 30.3935C120.598 30.1296 120.191 29.5118 119.264 29.5118C118.62 29.5118 118.036 29.8078 117.707 30.3066C117.571 30.5028 117.344 30.963 117.344 31.8445V37.4688H114.66V29.5472C114.66 29.441 114.66 28.5208 114.609 27.8612H117.155L117.242 29.5376L117.395 29.2866C117.642 28.878 118.399 27.6328 120.473 27.6328C122.547 27.6328 123.194 28.9906 123.348 29.4088C123.55 29.9784 123.612 30.4481 123.612 32.2918V37.472H120.89L120.893 37.4688Z" fill="#008CD6"/>
<path d="M131.18 37.8923C128.189 37.8923 126.328 35.9775 126.328 32.8967C126.328 30.4531 127.617 27.8438 131.238 27.8438C134.858 27.8438 136.167 30.4148 136.167 32.8202C136.167 35.2256 134.862 37.8923 131.18 37.8923ZM131.238 29.5578C129.061 29.5578 129.061 32.0875 129.061 32.9158C129.061 35.06 129.785 36.1017 131.276 36.1017C132.767 36.1017 133.453 35.0217 133.453 32.7055C133.453 30.6155 132.706 29.5578 131.238 29.5578Z" fill="#008CD6"/>
<path d="M142.237 37.8923C140.784 37.8923 139.709 37.5108 138.954 36.7287C138.359 36.1037 138.286 35.3826 138.266 34.9787H140.778C140.826 35.3794 141.087 36.3056 142.488 36.3056C143.589 36.3056 144.089 35.6614 144.089 35.062C144.089 34.4626 143.69 34.1582 142.666 33.8793L140.884 33.3985C140.096 33.1677 138.473 32.6965 138.473 30.7926C138.473 29.0009 140.115 27.8438 142.663 27.8438C144.335 27.8438 146.153 28.5521 146.284 30.5265H143.851C143.763 29.7605 143.267 29.3726 142.372 29.3726C141.478 29.3726 140.926 29.7957 140.926 30.424C140.926 31.1516 141.484 31.3023 142.33 31.5298L144.093 32.0106C145.807 32.4722 146.64 33.3312 146.64 34.6357C146.64 36.2031 145.261 37.8923 142.237 37.8923Z" fill="#008CD6"/>
<path d="M155.482 37.4695V31.7923C155.482 31.2513 155.482 29.6029 153.78 29.6029C152.845 29.6029 151.846 30.1439 151.846 31.6586L151.864 37.4695H149.156V23.8652H151.826V29.5201L151.994 29.2878C152.325 28.8296 153.011 27.8749 154.754 27.8749C156.366 27.8749 157.236 28.7596 157.537 29.1383C157.932 29.676 158.158 30.6117 158.158 31.7V37.4726H155.489L155.482 37.4695Z" fill="#008CD6"/>
<path d="M161.582 37.4738V28.0183H164.335V37.4738H161.582ZM162.758 26.8472L161.078 25.238L163.166 23.2383L164.847 24.8475L162.758 26.8472Z" fill="#008CD6"/>
<path d="M180.58 37.4736V31.9156C180.58 30.8002 180.375 29.6594 178.854 29.6594C177.013 29.6594 177.013 31.4466 177.013 32.7522V37.4736H174.33V31.8586C174.33 31.1456 174.33 29.6594 172.642 29.6594C170.763 29.6594 170.763 31.2977 170.763 31.9156V37.4736H168.078V29.7671C168.078 29.2475 168.05 28.6993 167.992 28.0497H170.561L170.67 29.4471L170.814 29.2507C171.125 28.826 171.851 27.8438 173.743 27.8438C175.227 27.8438 176.228 28.4331 176.719 29.596L176.793 29.7735L176.883 29.6023C177.495 28.4331 178.489 27.8628 179.919 27.8628C181.77 27.8628 182.553 28.9084 182.803 29.3552C183.277 30.122 183.274 31.1519 183.274 31.9821V37.4736H180.59H180.58Z" fill="#008CD6"/>
<path d="M189.232 37.6814C187.81 37.6814 187.2 37.2839 186.832 36.9377C186.304 36.4184 186 35.6652 186 34.8671C186 34.117 186.264 32.7356 188.038 31.931C189.232 31.4022 190.977 31.4022 191.912 31.4022H192.004V31.3124C192.004 30.6778 191.984 30.3541 191.864 29.9951C191.567 29.1681 190.664 29.1265 190.484 29.1265C190.002 29.1265 189.565 29.3412 189.314 29.7034C189.111 30.0112 189.085 30.3028 189.082 30.5304H186.434C186.457 30.0175 186.548 29.0816 187.507 28.4052C188.234 27.8925 189.222 27.6328 190.445 27.6328C191.336 27.6328 192.966 27.7899 193.896 28.8508C194.336 29.37 194.558 30.1553 194.558 31.1746L194.577 35.0787C194.577 35.9697 194.646 36.7486 194.793 37.4506H192.363C192.278 36.8993 192.278 36.4889 192.278 36.2133V35.9216L192.108 36.1621C191.043 37.6814 189.77 37.6814 189.229 37.6814H189.232ZM191.339 32.851C189.669 32.851 188.632 33.4984 188.632 34.5434C188.632 35.2774 189.147 36.0178 190.132 36.0178C190.628 36.0178 191.101 35.803 191.433 35.428C191.962 34.7869 192.004 34.0016 192.004 32.9631V32.8798L191.919 32.8734C191.72 32.8574 191.524 32.8477 191.339 32.8477V32.851Z" fill="#008CD6"/>
</svg>
